<svg width="136" height="50" viewBox="0 0 136 50" fill="none" xmlns="http://www.w3.org/2000/svg">
<circle cx="115" cy="23" r="14.75" stroke="white" stroke-width="0.5"/>
<path d="M15.8 33H10.94V17.88H5.27V14.1H21.47V17.88H15.8V33ZM38.3482 33H23.3632V14.1H38.3482V17.88H28.2232V21.525H36.1882V25.305H28.2232V29.22H38.3482V33ZM51.0318 14.1C53.0658 14.1 54.6048 14.631 55.6488 15.693C56.7108 16.737 57.2418 18.276 57.2418 20.31V26.79C57.2418 28.824 56.7108 30.372 55.6488 31.434C54.6048 32.478 53.0658 33 51.0318 33H40.5018V14.1H51.0318ZM52.3818 20.31C52.3818 18.69 51.5718 17.88 49.9518 17.88H45.3618V29.22H49.9518C51.5718 29.22 52.3818 28.41 52.3818 26.79V20.31ZM72.0845 19.23C72.0845 18.15 71.5445 17.61 70.4645 17.61H65.8745C64.7945 17.61 64.2545 18.15 64.2545 19.23V27.87C64.2545 28.95 64.7945 29.49 65.8745 29.49H70.4645C71.5445 29.49 72.0845 28.95 72.0845 27.87V19.23ZM76.9445 27.87C76.9445 29.76 76.5125 31.137 75.6485 32.001C74.8025 32.847 73.4345 33.27 71.5445 33.27H64.7945C62.9045 33.27 61.5275 32.847 60.6635 32.001C59.8175 31.137 59.3945 29.76 59.3945 27.87V19.23C59.3945 17.34 59.8175 15.972 60.6635 15.126C61.5275 14.262 62.9045 13.83 64.7945 13.83H71.5445C73.4345 13.83 74.8025 14.262 75.6485 15.126C76.5125 15.972 76.9445 17.34 76.9445 19.23V27.87ZM90.0648 14.1H95.4648L89.3898 23.55L95.5998 33H90.1998L86.4198 27.06L82.6398 33H77.2398L83.4498 23.55L77.3748 14.1H82.7478L86.4198 20.04L90.0648 14.1Z" fill="white"/>
<path d="M135 45L134.432 1.00016" stroke="white" stroke-width="0.5"/>
<path d="M1 39.1333L1 0.999997" stroke="white" stroke-width="0.5"/>
<line x1="135" y1="1.25" x2="1" y2="1.25" stroke="white" stroke-width="0.5"/>
<path d="M135 44.4022L1.00001 44.4022" stroke="white" stroke-width="0.5"/>
<g clip-path="url(#clip0)">
<path d="M115.475 24.1575C114.785 23.5402 113.722 23.5627 113.06 24.2248C112.375 24.9102 112.375 26.0253 113.062 26.7125L115.062 28.6963C115.176 28.8096 115.326 28.8662 115.475 28.8662C115.624 28.8662 115.773 28.8096 115.887 28.6963L117.889 26.7107C118.575 26.0253 118.575 24.9102 117.889 24.2248C117.227 23.5627 116.164 23.5402 115.475 24.1575ZM117.063 25.8803L115.475 27.455L113.889 25.882C113.66 25.6536 113.66 25.2819 113.889 25.0535C113.999 24.9427 114.146 24.8818 114.303 24.8818C114.459 24.8818 114.607 24.9427 114.717 25.0535L115.06 25.3966C115.17 25.5065 115.319 25.5683 115.475 25.5683C115.63 25.5683 115.779 25.5065 115.889 25.3966L116.232 25.0535C116.343 24.9427 116.49 24.8818 116.647 24.8818C116.803 24.8818 116.95 24.9427 117.061 25.0535C117.172 25.1641 117.233 25.3112 117.233 25.4677C117.233 25.6243 117.172 25.7714 117.063 25.8803Z" fill="white"/>
<path d="M112.311 19.0224C113.711 19.0224 114.85 17.8833 114.85 16.4833C114.85 15.0833 113.711 13.9443 112.311 13.9443C110.911 13.9443 109.771 15.0833 109.771 16.4833C109.771 17.8833 110.911 19.0224 112.311 19.0224ZM112.311 15.1161C113.064 15.1161 113.678 15.7294 113.678 16.4833C113.678 17.2373 113.064 17.8505 112.311 17.8505C111.557 17.8505 110.943 17.2373 110.943 16.4833C110.943 15.7294 111.557 15.1161 112.311 15.1161Z" fill="white"/>
<path d="M118.639 19.0224C120.039 19.0224 121.178 17.8833 121.178 16.4833C121.178 15.0833 120.039 13.9443 118.639 13.9443C117.239 13.9443 116.1 15.0833 116.1 16.4833C116.1 17.8833 117.239 19.0224 118.639 19.0224ZM118.639 15.1161C119.393 15.1161 120.006 15.7294 120.006 16.4833C120.006 17.2373 119.393 17.8505 118.639 17.8505C117.885 17.8505 117.271 17.2373 117.271 16.4833C117.271 15.7294 117.885 15.1161 118.639 15.1161Z" fill="white"/>
<path d="M123.326 18.163C122.141 18.163 121.178 19.1268 121.178 20.3115C121.178 21.4962 122.141 22.4599 123.326 22.4599C124.511 22.4599 125.475 21.4962 125.475 20.3115C125.475 19.1268 124.511 18.163 123.326 18.163ZM123.326 21.288C122.788 21.288 122.35 20.8499 122.35 20.3115C122.35 19.773 122.788 19.3349 123.326 19.3349C123.865 19.3349 124.303 19.773 124.303 20.3115C124.303 20.8499 123.865 21.288 123.326 21.288Z" fill="white"/>
<path d="M109.771 20.3115C109.771 19.1268 108.808 18.163 107.623 18.163C106.438 18.163 105.475 19.1268 105.475 20.3115C105.475 21.4962 106.438 22.4599 107.623 22.4599C108.808 22.4599 109.771 21.4962 109.771 20.3115ZM107.623 21.288C107.085 21.288 106.646 20.8499 106.646 20.3115C106.646 19.773 107.085 19.3349 107.623 19.3349C108.162 19.3349 108.6 19.773 108.6 20.3115C108.6 20.8499 108.162 21.288 107.623 21.288Z" fill="white"/>
<path d="M121.666 24.3924C121.287 23.0278 120.491 21.8537 119.364 20.9966C118.237 20.1395 116.892 19.6865 115.476 19.6865C114.059 19.6865 112.713 20.1401 111.585 20.9984C110.458 21.8566 109.662 23.0323 109.284 24.3982L108.427 27.4955C108.158 28.4694 108.355 29.4889 108.968 30.2924C109.579 31.0935 110.507 31.5525 111.514 31.5525H111.523L119.443 31.5317C120.451 31.5291 121.378 31.0669 121.987 30.2639C122.596 29.4606 122.791 28.443 122.521 27.4718L121.666 24.3924ZM121.053 29.5558C120.667 30.0652 120.079 30.3582 119.44 30.3598L111.52 30.3806C111.518 30.3806 111.516 30.3806 111.514 30.3806C110.875 30.3806 110.287 30.0896 109.9 29.5815C109.511 29.072 109.386 28.4255 109.557 27.8078L110.413 24.7107C111.041 22.4425 113.123 20.8583 115.476 20.8583C116.634 20.8583 117.733 21.2287 118.655 21.9295C119.577 22.6302 120.227 23.5903 120.537 24.706L121.392 27.7854C121.563 28.4012 121.439 29.0465 121.053 29.5558Z" fill="white"/>
</g>
<defs>
<clipPath id="clip0">
<rect x="105.475" y="12.7333" width="20" height="20" fill="white"/>
</clipPath>
</defs>
</svg>
