<svg width="60" height="60" viewBox="0 0 60 60" fill="none" xmlns="http://www.w3.org/2000/svg">
<path d="M30 0C13.4316 0 0 13.4316 0 30C0 46.5684 13.4316 60 30 60C46.5684 60 60 46.5684 60 30C59.9814 13.4395 46.5605 0.0185548 30 0ZM30 58C14.5361 58 2 45.4639 2 30C2 14.5361 14.5361 2 30 2C45.4639 2 58 14.5361 58 30C57.9824 45.4565 45.4565 57.9824 30 58Z" fill="white"/>
<path d="M44 18H16C15.4478 18 15 18.4478 15 19V41C15 41.5522 15.4478 42 16 42H44C44.5522 42 45 41.5522 45 41V19C45 18.4478 44.5522 18 44 18ZM41.2998 20L30 29.6831L18.7002 20H41.2998ZM17 40V21.1738L29.3491 31.7588C29.7231 32.0791 30.2749 32.0791 30.6489 31.7588L43 21.1738V40H17Z" fill="white"/>
</svg>
