<svg width="50" height="50" viewBox="0 0 50 50" fill="none" xmlns="http://www.w3.org/2000/svg">
<path d="M24.9997 0C15.0148 0 6.8916 8.12324 6.8916 18.108C6.8916 30.4994 23.0966 48.6907 23.7865 49.4591C24.4346 50.1809 25.566 50.1796 26.2129 49.4591C26.9028 48.6907 43.1078 30.4994 43.1078 18.108C43.1076 8.12324 34.9845 0 24.9997 0ZM24.9997 27.2187C19.9761 27.2187 15.8892 23.1316 15.8892 18.108C15.8892 13.0844 19.9762 8.99746 24.9997 8.99746C30.0232 8.99746 34.1102 13.0845 34.1102 18.1081C34.1102 23.1317 30.0232 27.2187 24.9997 27.2187Z" fill="white"/>
</svg>
