<svg width="60" height="60" viewBox="0 0 60 60" fill="none" xmlns="http://www.w3.org/2000/svg">
<g clip-path="url(#clip0)">
<path d="M50.7269 8.52609C38.9565 -2.84203 20.296 -2.84203 8.52567 8.52609C-3.12792 20.592 -2.79369 39.8202 9.27219 51.4738C21.0425 62.8419 39.7031 62.8419 51.4734 51.4738C63.127 39.408 62.7928 20.1797 50.7269 8.52609ZM50.0459 50.0462L50.0358 50.0362C38.96 61.1019 21.0108 61.0937 9.94514 50.0179C-1.12056 38.9421 -1.11237 20.9931 9.96342 9.92741C21.0392 -1.13828 38.9883 -1.1301 50.054 9.94556C55.3692 15.2656 58.3528 22.4796 58.3479 29.9999C58.3484 37.5186 55.3621 44.7295 50.0459 50.0462Z" fill="white"/>
<path d="M47.0593 38.6462L41.3694 32.9765C40.0781 31.6821 37.9818 31.6796 36.6874 32.9709C36.6855 32.9728 36.6837 32.9746 36.6818 32.9765L33.4218 36.2365C33.1752 36.4838 32.7865 36.5179 32.5006 36.3175C30.7162 35.0706 29.046 33.6678 27.5093 32.126C26.133 30.7528 24.8669 29.2736 23.7227 27.7016C23.5153 27.4193 23.5454 27.0277 23.7935 26.7804L27.1346 23.4393C28.4245 22.1469 28.4245 20.0542 27.1346 18.7618L21.4447 13.072C20.1336 11.8185 18.0683 11.8185 16.7572 13.072L14.955 14.8741C12.2334 17.5651 11.2619 21.5608 12.4442 25.2009C13.3264 27.8642 14.5735 30.3923 16.1497 32.7132C17.5687 34.841 19.1966 36.8217 21.0094 38.6259C22.9802 40.6108 25.1633 42.3728 27.5193 43.8805C30.1094 45.5706 32.9532 46.8352 35.9428 47.6265C36.7114 47.8159 37.5001 47.9111 38.2916 47.9099C41.0052 47.8933 43.6012 46.801 45.5104 44.8726L47.0594 43.3235C48.3492 42.0313 48.3492 39.9386 47.0593 38.6462ZM45.6256 41.9428C45.6243 41.9441 45.623 41.9455 45.6215 41.9468L45.6316 41.9164L44.0826 43.4654C42.0923 45.4809 39.1937 46.3101 36.4386 45.6523C33.6629 44.9094 31.0242 43.7267 28.6226 42.1493C26.3914 40.7233 24.3236 39.0563 22.4569 37.1782C20.7392 35.4731 19.1961 33.6009 17.8502 31.5895C16.3781 29.4252 15.2129 27.0675 14.3877 24.5834C13.4417 21.6652 14.2256 18.4631 16.4126 16.3118L18.2147 14.5097C18.7157 14.0064 19.5299 14.0046 20.0331 14.5057C20.0344 14.507 20.0358 14.5083 20.0371 14.5097L25.727 20.1996C26.2303 20.7006 26.232 21.5148 25.731 22.0179C25.7297 22.0192 25.7284 22.0205 25.727 22.022L22.3859 25.363C21.4273 26.3112 21.3067 27.818 22.1025 28.9066C23.3109 30.565 24.6481 32.1256 26.1017 33.574C27.7222 35.2016 29.484 36.6821 31.3663 37.9984C32.4539 38.757 33.9284 38.6291 34.8693 37.6947L38.0989 34.4144C38.6 33.9111 39.4141 33.9093 39.9173 34.4103C39.9186 34.4116 39.9199 34.4129 39.9213 34.4144L45.6214 40.1245C46.1248 40.6254 46.1266 41.4395 45.6256 41.9428Z" fill="white"/>
</g>
<defs>
<clipPath id="clip0">
<rect width="60" height="60" fill="white"/>
</clipPath>
</defs>
</svg>
